# xmcd
#
# Track frame offsets:
#	150
#	12590
#	20826
#	37938
#	50981
#	62809
#	75014
#	89886
#	101199
#	116028
#	129387
#	143316
#	155457
#	170853
#	186865
#	202380
#	219884
#	230571
#	246039
#	267786
#	291164
#
# Disc length: 4046 seconds
# Revision: 1
# Processed by: cddbd v1.5.2PL0 Copyright (c) Steve Scherf et al.
# Submitted via: dBpowerAMP V12.0
#
DISCID=380fcc15
DTITLE=Various Artist - Original Hits Country, Disc 3
DYEAR=2009
DGENRE=Country
TTITLE0=Dolly Parton - 9 To 5
TTITLE1=Nitty Gritty Dirt Band, The - Hey Good Lookin'
TTITLE2=Suzy Bogguss - All My Loving
TTITLE3=Tanya Tucker - San Antonio Stroll (1975 Recording)
TTITLE4=Mike Post - Jackson
TTITLE5=Billie Jo Spears - What I've Got In Mind
TTITLE6=Asleep at the Wheel - She Came To Dance
TTITLE7=Chris LeDoux - Under This Old Hat
TTITLE8=Deana Carter - Brand New Key
TTITLE9=Mel McDaniel - Baby's Got Her Blue Jeans On
TTITLE10=Larry Gatlin and the Gatlin Brothers Band - Boogie and Beethoven
TTITLE11=Pirates of the Mississippi - The Wild Side of Life
TTITLE12=Juice Newton - Queen of Hearts
TTITLE13=Joe South - Games People Play
TTITLE14=George Ducas - Tricky Moon
TTITLE15=Gail Davies - The Other Side of Love
TTITLE16=Eddie Rabbitt - Bye Bye Love
TTITLE17=Dierks Bentley - I Bought the Shoes
TTITLE18=Charlie Daniels - Tennessee Two Step
TTITLE19=Chris Cagle - It Takes Two
TTITLE20=Billie Jo Spears - Let Your Love Flow
EXTD=
EXTT0=
EXTT1=
EXTT2=
EXTT3=
EXTT4=
EXTT5=
EXTT6=
EXTT7=
EXTT8=
EXTT9=
EXTT10=
EXTT11=
EXTT12=
EXTT13=
EXTT14=
EXTT15=
EXTT16=
EXTT17=
EXTT18=
EXTT19=
EXTT20=
PLAYORDER=
